REM GENRE "Black Metal"
REM DATE 2017
REM DISCID 5E0A3508
REM COMMENT "ExactAudioCopy v1.3"
PERFORMER "Satyricon"
TITLE "Deep Calleth Upon Deep "
FILE "Satyricon - Deep Calleth Upon Deep.flac" WAVE
  TRACK 01 AUDIO
    TITLE "Midnight Serpent"
    PERFORMER "Satyricon"
    INDEX 01 00:00:00
  TRACK 02 AUDIO
    TITLE "Blood Cracks Open the Ground"
    PERFORMER "Satyricon"
    INDEX 01 06:20:49
  TRACK 03 AUDIO
    TITLE "To Your Brethren in the Dark"
    PERFORMER "Satyricon"
    INDEX 01 11:13:41
  TRACK 04 AUDIO
    TITLE "Deep Calleth Upon Deep"
    PERFORMER "Satyricon"
    INDEX 01 17:21:22
  TRACK 05 AUDIO
    TITLE "The Ghost of Rome"
    PERFORMER "Satyricon"
    INDEX 01 21:58:20
  TRACK 06 AUDIO
    TITLE "Dissonant"
    PERFORMER "Satyricon"
    INDEX 01 26:25:31
  TRACK 07 AUDIO
    TITLE "Black Wings And Withering Gloom"
    PERFORMER "Satyricon"
    INDEX 01 30:38:69
  TRACK 08 AUDIO
    TITLE "Burial Rite"
    PERFORMER "Satyricon"
    INDEX 01 37:50:24
